<svg width="59" height="51" viewBox="0 0 59 51" fill="none" xmlns="http://www.w3.org/2000/svg">
<path d="M30.271 3.98235e-05C29.9658 -0.000261974 29.6643 0.0656847 29.3871 0.193325C29.1099 0.320965 28.8638 0.507255 28.6657 0.739325L28.4544 0.891407C22.0966 -0.975817 14.8854 0.468958 9.85402 5.22995C5.38873 9.45022 3.68627 15.2885 4.72971 20.7507L4.66635 20.8099L1.83172 23.4924C1.25418 24.0253 0.793258 24.672 0.478006 25.3918C0.162754 26.1116 0 26.8888 0 27.6747C0 28.4605 0.162754 29.2378 0.478006 29.9575C0.793258 30.6773 1.25418 31.324 1.83172 31.8569C3.27649 33.2299 5.262 33.7875 7.1419 33.5298C7.41226 34.5141 7.95722 35.4477 8.77255 36.2208C9.87514 37.2642 11.2903 37.8345 12.7351 37.9359C12.8407 39.3004 13.4448 40.6396 14.5516 41.6831C15.65 42.7265 17.0652 43.2968 18.51 43.3982C18.6156 44.7627 19.2197 46.1019 20.3265 47.1453C21.4283 48.1636 22.8473 48.7712 24.3446 48.8658C25.8419 48.9604 27.3261 48.5364 28.5474 47.6649L29.9415 48.983C32.3917 51.3064 36.3754 51.3064 38.8298 48.983C39.9281 47.9437 40.5365 46.613 40.6505 45.2527C42.0869 45.1471 43.4852 44.5768 44.5835 43.5376C45.6819 42.4984 46.2902 41.1677 46.4001 39.8074C47.8153 39.6891 49.1967 39.1188 50.2866 38.0965C51.1357 37.2896 51.6933 36.3053 51.951 35.2703C52.8907 35.3895 53.8452 35.3006 54.7467 35.0101C55.6483 34.7195 56.475 34.2344 57.1683 33.5889C57.7458 33.0561 58.2067 32.4094 58.522 31.6896C58.8372 30.9698 59 30.1925 59 29.4067C59 28.6209 58.8372 27.8436 58.522 27.1238C58.2067 26.404 57.7458 25.7573 57.1683 25.2245L54.6589 22.8503L55.1405 21.076C56.2464 16.9649 55.6846 12.5834 53.5775 8.88414C50.4725 3.38385 44.461 0.0127124 37.9891 0.0127124H33.6844C33.4902 0.00376372 33.2958 -0.000461101 33.1014 3.98235e-05H30.2667H30.271ZM48.7404 23.0531L50.7935 25.0808C50.9245 25.2076 51.0681 25.3132 51.2202 25.4019L54.1013 28.1224C54.2782 28.2854 54.4194 28.4834 54.516 28.7037C54.6126 28.924 54.6624 29.1619 54.6624 29.4025C54.6624 29.643 54.6126 29.881 54.516 30.1013C54.4194 30.3216 54.2782 30.5195 54.1013 30.6825C53.7328 31.0233 53.2493 31.2127 52.7474 31.2127C52.2454 31.2127 51.7619 31.0233 51.3934 30.6825L46.5775 26.1327C46.1599 25.7471 45.6124 25.5329 45.044 25.5329C44.4756 25.5329 43.9281 25.7471 43.5105 26.1327L43.4598 26.175C42.6149 26.9776 42.6149 28.2788 43.4598 29.0814L47.2154 32.63C47.3924 32.7934 47.5337 32.9916 47.6303 33.2123C47.7269 33.4329 47.7768 33.6712 47.7768 33.9121C47.7768 34.153 47.7269 34.3913 47.6303 34.6119C47.5337 34.8326 47.3924 35.0309 47.2154 35.1942C46.8801 35.5046 46.4485 35.6906 45.9927 35.7213C45.5368 35.7521 45.0842 35.6257 44.7103 35.3632C44.2855 35.0623 43.7701 34.917 43.2507 34.9516C42.7314 34.9862 42.2398 35.1987 41.8587 35.5533C41.4907 35.8959 41.2674 36.3661 41.2345 36.8678C41.2015 37.3696 41.3613 37.8649 41.6813 38.2528C41.9624 38.5965 42.1015 39.0347 42.07 39.4776C42.0386 39.9206 41.8391 40.3347 41.5123 40.6354C41.1724 40.9499 40.7338 41.1367 40.2715 41.1636C39.8092 41.1906 39.3518 41.0561 38.9776 40.7832C38.5548 40.4741 38.0377 40.3211 37.5147 40.3503C36.9917 40.3796 36.495 40.5893 36.1092 40.9438C35.737 41.2863 35.5106 41.7588 35.4768 42.2636C35.443 42.7683 35.6043 43.2667 35.9276 43.6559C36.519 44.3741 36.4598 45.4175 35.7586 46.0807C35.3843 46.4251 34.8942 46.6163 34.3856 46.6163C33.877 46.6163 33.387 46.4251 33.0127 46.0807L31.6524 44.7965L32.0072 44.4628C32.5848 43.9299 33.0457 43.2832 33.3609 42.5634C33.6762 41.8436 33.839 41.0663 33.839 40.2805C33.839 39.4947 33.6762 38.7174 33.3609 37.9976C33.0457 37.2778 32.5848 36.6311 32.0072 36.0983C30.9251 35.0845 29.5244 34.4782 28.0447 34.3831C27.9278 32.9512 27.2799 31.6147 26.2281 30.636C25.1477 29.6216 23.7486 29.0139 22.2698 28.9167C22.153 27.4847 21.505 26.1482 20.4533 25.1695C19.7484 24.5131 18.9059 24.0223 17.9872 23.7329C17.0686 23.4435 16.0969 23.3628 15.1431 23.4966C14.8563 22.4684 14.2922 21.5389 13.5124 20.8099C12.8898 20.2273 12.1577 19.7741 11.3585 19.4768C10.5593 19.1795 9.70905 19.0439 8.85704 19.0778C8.62992 17.0626 8.87935 15.0221 9.58524 13.1209C10.2911 11.2197 11.4337 9.51091 12.921 8.13218C14.3759 6.77354 16.0933 5.72678 17.9676 5.05624C19.842 4.3857 21.8336 4.10554 23.8202 4.23298L19.1944 7.57032C18.4845 8.07429 17.8857 8.71878 17.4353 9.46378C16.9849 10.2088 16.6924 11.0384 16.5759 11.9012C16.4594 12.7639 16.5215 13.6414 16.7583 14.4792C16.9951 15.3169 17.4015 16.0971 17.9524 16.7713C19.0635 18.1323 20.6502 19.0204 22.3914 19.2557C24.1326 19.491 25.8982 19.0559 27.3307 18.0386L33.0211 13.9408H39.1044L48.7404 23.0531ZM21.6657 10.9922L31.0567 4.22453H33.1056C33.2817 4.22275 33.4578 4.22698 33.6337 4.2372H37.9849C43.0205 4.2372 47.5829 6.85638 49.9022 10.9626C51.3892 13.5944 51.8328 16.6234 51.1695 19.5214L41.8249 10.3205C41.4301 9.93333 40.8993 9.71644 40.3464 9.71636H32.3325C31.8899 9.71621 31.4584 9.85512 31.099 10.1135L24.8636 14.6125C24.3082 14.9985 23.6283 15.1622 22.9581 15.0715C22.2879 14.9808 21.676 14.6422 21.2432 14.1225C21.0518 13.8952 20.9101 13.6304 20.8272 13.3451C20.7443 13.0598 20.722 12.7603 20.7618 12.4658C20.8016 12.1714 20.9026 11.8885 21.0583 11.6355C21.2139 11.3824 21.4208 11.1647 21.6657 10.9964V10.9922ZM26.2366 38.9921C26.6059 38.6536 27.0891 38.4665 27.5901 38.4681C28.091 38.4696 28.5731 38.6597 28.9403 39.0005C29.1172 39.1635 29.2584 39.3614 29.355 39.5817C29.4515 39.802 29.5014 40.04 29.5014 40.2805C29.5014 40.5211 29.4515 40.759 29.355 40.9793C29.2584 41.1996 29.1172 41.3975 28.9403 41.5605L26.1014 44.2431C25.7331 44.5827 25.2505 44.7713 24.7496 44.7713C24.2486 44.7713 23.766 44.5827 23.3977 44.2431C23.2208 44.0801 23.0796 43.8822 22.983 43.6619C22.8864 43.4416 22.8366 43.2036 22.8366 42.9631C22.8366 42.7225 22.8864 42.4846 22.983 42.2643C23.0796 42.044 23.2208 41.8461 23.3977 41.6831L26.2366 38.9963V38.9921ZM23.1696 36.0898L20.3265 38.7808C19.958 39.1217 19.4745 39.311 18.9726 39.311C18.4706 39.311 17.9871 39.1217 17.6186 38.7808C17.4456 38.6212 17.3068 38.4281 17.2106 38.2133C17.1144 37.9985 17.0627 37.7663 17.0588 37.531C17.0548 37.2956 17.0987 37.0619 17.1876 36.844C17.2766 36.626 17.4088 36.4284 17.5764 36.263L17.6186 36.2208L20.4533 33.5382L20.4955 33.496C20.8667 33.1728 21.3443 32.9983 21.8364 33.0061C22.3285 33.0139 22.8004 33.2035 23.1612 33.5382C23.3373 33.7006 23.478 33.8975 23.5745 34.1167C23.6709 34.3359 23.7212 34.5727 23.722 34.8122C23.7228 35.0517 23.6741 35.2888 23.5791 35.5086C23.484 35.7285 23.3446 35.9263 23.1696 36.0898ZM17.3821 30.636L14.5516 33.3143L14.5052 33.3566C14.1343 33.6786 13.6575 33.8524 13.1664 33.8446C12.6752 33.8368 12.2043 33.648 11.8438 33.3143C11.6668 33.1513 11.5256 32.9534 11.4291 32.7331C11.3325 32.5128 11.2826 32.2749 11.2826 32.0343C11.2826 31.7938 11.3325 31.5558 11.4291 31.3355C11.5256 31.1152 11.6668 30.9173 11.8438 30.7543L14.6742 28.076C15.0429 27.7339 15.5273 27.5439 16.0302 27.5439C16.5332 27.5439 17.0175 27.7339 17.3863 28.076C17.5593 28.2356 17.6981 28.4287 17.7943 28.6435C17.8905 28.8584 17.9422 29.0905 17.9461 29.3258C17.9501 29.5612 17.9062 29.7949 17.8173 30.0129C17.7283 30.2308 17.5961 30.4284 17.4285 30.5938L17.3863 30.636H17.3821ZM10.4454 26.2721L7.61504 28.9547C7.24631 29.2967 6.76193 29.4868 6.25898 29.4868C5.75602 29.4868 5.27165 29.2967 4.90292 28.9547C4.72601 28.7917 4.5848 28.5938 4.48822 28.3735C4.39164 28.1532 4.34177 27.9152 4.34177 27.6747C4.34177 27.4341 4.39164 27.1962 4.48822 26.9758C4.5848 26.7555 4.72601 26.5576 4.90292 26.3946L7.73755 23.7121C8.10605 23.3712 8.58954 23.1819 9.0915 23.1819C9.59346 23.1819 10.077 23.3712 10.4454 23.7121C10.6224 23.8751 10.7636 24.073 10.8601 24.2933C10.9567 24.5136 11.0066 24.7516 11.0066 24.9921C11.0066 25.2327 10.9567 25.4706 10.8601 25.6909C10.7636 25.9112 10.6224 26.1091 10.4454 26.2721Z" fill="#24292F"/>
</svg>
